<!DOCTYPE svg PUBLIC "-//W3C//DTD SVG 20010904//EN" "http://www.w3.org/TR/2001/REC-SVG-20010904/DTD/svg10.dtd">
<svg version="1.0" xmlns="http://www.w3.org/2000/svg" width="1200px" height="644px" viewBox="0 0 12000 6440" preserveAspectRatio="xMidYMid meet">
<g id="layer101" fill="#0e48a1" stroke="none">
<path d="M0 3220 l0 -3220 6000 0 6000 0 0 3220 0 3220 -6000 0 -6000 0 0 -3220z"/>
</g>
<g id="layer102" fill="#2096f3" stroke="none">
<path d="M0 3220 l0 -3220 6000 0 6000 0 0 3220 0 3220 -6000 0 -6000 0 0 -3220z m3805 352 c85 -40 145 -98 189 -181 68 -129 69 -141 73 -679 l4 -483 -153 3 -153 3 -5 455 c-5 415 -7 459 -24 498 -60 137 -226 133 -289 -7 -8 -18 -14 -171 -17 -486 l-5 -460 -153 -3 -153 -3 3 488 c4 425 6 496 21 548 74 255 248 369 525 343 49 -4 94 -16 137 -36z m3671 -7 c118 -58 188 -153 230 -310 17 -64 19 -113 19 -545 l0 -475 -150 0 -150 0 -5 455 -5 455 -25 49 c-34 68 -68 91 -135 91 -65 0 -99 -22 -135 -86 l-25 -44 -5 -460 -5 -460 -153 -3 -153 -3 3 488 c3 427 6 496 21 548 74 256 247 369 526 343 56 -5 93 -16 147 -43z m-5856 -480 l0 -504 153 -3 152 -3 0 -170 0 -170 -462 -3 -463 -2 0 175 0 175 155 0 155 0 0 505 0 505 155 0 155 0 0 -505z m750 260 l0 -245 59 0 59 0 81 236 c44 130 81 240 81 245 0 5 77 9 175 9 l175 0 -15 -37 c-8 -21 -55 -148 -105 -282 l-90 -243 48 -43 c85 -76 132 -195 132 -331 0 -191 -75 -338 -203 -395 -51 -23 -60 -24 -374 -27 l-323 -3 0 680 0 681 150 0 150 0 0 -245z m2738 83 l-3 -163 -262 -3 -263 -2 0 -100 0 -100 223 -2 222 -3 0 -150 0 -150 -220 -5 -220 -5 -3 -92 -3 -93 261 0 260 0 0 -165 0 -165 -410 0 -410 0 0 680 0 680 415 0 415 0 -2 -162z m1379 139 c124 -68 191 -238 165 -419 -19 -132 -58 -194 -157 -253 -14 -9 -10 -15 30 -43 148 -104 145 -439 -4 -563 -66 -54 -102 -59 -458 -59 l-323 0 0 680 0 681 358 -3 c319 -3 360 -5 389 -21z m1974 13 c81 -16 168 -61 222 -116 54 -54 109 -158 132 -249 27 -107 39 -288 27 -420 -25 -276 -106 -432 -265 -510 -95 -46 -179 -57 -437 -53 l-205 3 -3 665 c-1 366 0 671 3 678 6 15 445 17 526 2z m1080 0 c185 -35 312 -179 359 -411 22 -107 27 -357 10 -469 -25 -156 -97 -304 -180 -370 -101 -80 -201 -100 -504 -100 l-216 0 0 680 0 680 239 0 c131 0 263 -5 292 -10z m1089 -249 l0 -260 136 -303 c74 -167 158 -352 185 -412 27 -60 49 -113 49 -117 0 -5 -74 -9 -164 -9 l-164 0 -87 218 c-48 119 -90 221 -94 225 -5 4 -49 -92 -98 -215 l-91 -223 -163 -3 c-90 -1 -169 0 -175 2 -8 3 51 145 177 420 l189 416 0 260 0 260 150 0 150 0 0 -259z"/>
</g>
<g id="layer103" fill="#78bff7" stroke="none">
<path d="M0 3220 l0 -3220 6000 0 6000 0 0 3220 0 3220 -6000 0 -6000 0 0 -3220z m3805 352 c85 -40 145 -98 189 -181 68 -129 69 -141 73 -679 l4 -483 -153 3 -153 3 -5 455 c-5 415 -7 459 -24 498 -60 137 -226 133 -289 -7 -8 -18 -14 -171 -17 -486 l-5 -460 -153 -3 -153 -3 3 488 c4 425 6 496 21 548 74 255 248 369 525 343 49 -4 94 -16 137 -36z m3671 -7 c118 -58 188 -153 230 -310 17 -64 19 -113 19 -545 l0 -475 -150 0 -150 0 -5 455 -5 455 -25 49 c-34 68 -68 91 -135 91 -65 0 -99 -22 -135 -86 l-25 -44 -5 -460 -5 -460 -153 -3 -153 -3 3 488 c3 427 6 496 21 548 74 256 247 369 526 343 56 -5 93 -16 147 -43z m-5856 -480 l0 -504 153 -3 152 -3 0 -170 0 -170 -462 -3 -463 -2 0 175 0 175 155 0 155 0 0 505 0 505 155 0 155 0 0 -505z m750 260 l0 -245 59 0 59 0 81 236 c44 130 81 240 81 245 0 5 77 9 175 9 l175 0 -15 -37 c-8 -21 -55 -148 -105 -282 l-90 -243 48 -43 c85 -76 132 -195 132 -331 0 -191 -75 -338 -203 -395 -51 -23 -60 -24 -374 -27 l-323 -3 0 680 0 681 150 0 150 0 0 -245z m2738 83 l-3 -163 -262 -3 -263 -2 0 -100 0 -100 223 -2 222 -3 0 -150 0 -150 -220 -5 -220 -5 -3 -92 -3 -93 261 0 260 0 0 -165 0 -165 -410 0 -410 0 0 680 0 680 415 0 415 0 -2 -162z m1379 139 c124 -68 191 -238 165 -419 -19 -132 -58 -194 -157 -253 -14 -9 -10 -15 30 -43 148 -104 145 -439 -4 -563 -66 -54 -102 -59 -458 -59 l-323 0 0 680 0 681 358 -3 c319 -3 360 -5 389 -21z m1974 13 c81 -16 168 -61 222 -116 54 -54 109 -158 132 -249 27 -107 39 -288 27 -420 -25 -276 -106 -432 -265 -510 -95 -46 -179 -57 -437 -53 l-205 3 -3 665 c-1 366 0 671 3 678 6 15 445 17 526 2z m1080 0 c185 -35 312 -179 359 -411 22 -107 27 -357 10 -469 -25 -156 -97 -304 -180 -370 -101 -80 -201 -100 -504 -100 l-216 0 0 680 0 680 239 0 c131 0 263 -5 292 -10z m1089 -249 l0 -260 136 -303 c74 -167 158 -352 185 -412 27 -60 49 -113 49 -117 0 -5 -74 -9 -164 -9 l-164 0 -87 218 c-48 119 -90 221 -94 225 -5 4 -49 -92 -98 -215 l-91 -223 -163 -3 c-90 -1 -169 0 -175 2 -8 3 51 145 177 420 l189 416 0 260 0 260 150 0 150 0 0 -259z m-925 -1996 c0 -20 -8 -20 -3747 -23 -3630 -2 -3748 -1 -3748 16 0 10 3 22 7 25 3 4 1690 6 3747 5 3733 -3 3741 -3 3741 -23z"/>
</g>
<g id="layer104" fill="#feffff" stroke="none">
<path d="M0 3220 l0 -3220 6000 0 6000 0 0 3220 0 3220 -6000 0 -6000 0 0 -3220z m9708 2368 l2 -298 885 0 885 0 0 -694 0 -694 -66 -4 c-36 -1 -68 -1 -70 1 -2 2 -4 271 -4 598 l0 593 -815 0 -815 0 -2 -382 -3 -383 -3747 -3 -3748 -2 0 385 0 385 -815 0 -815 0 0 -595 0 -595 -70 0 -70 0 0 695 0 695 885 0 885 0 0 300 0 300 3748 -2 3747 -3 3 -297z m-5903 -2016 c85 -40 145 -98 189 -181 68 -129 69 -141 73 -679 l4 -483 -153 3 -153 3 -5 455 c-5 415 -7 459 -24 498 -60 137 -226 133 -289 -7 -8 -18 -14 -171 -17 -486 l-5 -460 -153 -3 -153 -3 3 488 c4 425 6 496 21 548 74 255 248 369 525 343 49 -4 94 -16 137 -36z m3671 -7 c118 -58 188 -153 230 -310 17 -64 19 -113 19 -545 l0 -475 -150 0 -150 0 -5 455 -5 455 -25 49 c-34 68 -68 91 -135 91 -65 0 -99 -22 -135 -86 l-25 -44 -5 -460 -5 -460 -153 -3 -153 -3 3 488 c3 427 6 496 21 548 74 256 247 369 526 343 56 -5 93 -16 147 -43z m-5856 -480 l0 -504 153 -3 152 -3 0 -170 0 -170 -462 -3 -463 -2 0 175 0 175 155 0 155 0 0 505 0 505 155 0 155 0 0 -505z m750 260 l0 -245 59 0 59 0 81 236 c44 130 81 240 81 245 0 5 77 9 175 9 l175 0 -15 -37 c-8 -21 -55 -148 -105 -282 l-90 -243 48 -43 c85 -76 132 -195 132 -331 0 -191 -75 -338 -203 -395 -51 -23 -60 -24 -374 -27 l-323 -3 0 680 0 681 150 0 150 0 0 -245z m2738 83 l-3 -163 -262 -3 -263 -2 0 -100 0 -100 223 -2 222 -3 0 -150 0 -150 -220 -5 -220 -5 -3 -92 -3 -93 261 0 260 0 0 -165 0 -165 -410 0 -410 0 0 680 0 680 415 0 415 0 -2 -162z m1379 139 c124 -68 191 -238 165 -419 -19 -132 -58 -194 -157 -253 -14 -9 -10 -15 30 -43 148 -104 145 -439 -4 -563 -66 -54 -102 -59 -458 -59 l-323 0 0 680 0 681 358 -3 c319 -3 360 -5 389 -21z m1974 13 c81 -16 168 -61 222 -116 54 -54 109 -158 132 -249 27 -107 39 -288 27 -420 -25 -276 -106 -432 -265 -510 -95 -46 -179 -57 -437 -53 l-205 3 -3 665 c-1 366 0 671 3 678 6 15 445 17 526 2z m1080 0 c185 -35 312 -179 359 -411 22 -107 27 -357 10 -469 -25 -156 -97 -304 -180 -370 -101 -80 -201 -100 -504 -100 l-216 0 0 680 0 680 239 0 c131 0 263 -5 292 -10z m1089 -249 l0 -260 136 -303 c74 -167 158 -352 185 -412 27 -60 49 -113 49 -117 0 -5 -74 -9 -164 -9 l-164 0 -87 218 c-48 119 -90 221 -94 225 -5 4 -49 -92 -98 -215 l-91 -223 -163 -3 c-90 -1 -169 0 -175 2 -8 3 51 145 177 420 l189 416 0 260 0 260 150 0 150 0 0 -259z m-10050 -1806 l0 -425 5378 2 5377 3 3 423 2 423 68 -3 67 -3 0 -520 0 -520 -5517 -3 -5518 -2 0 525 0 525 70 0 70 0 0 -425z m9125 -190 c0 -20 -8 -20 -3747 -23 -3630 -2 -3748 -1 -3748 16 0 10 3 22 7 25 3 4 1690 6 3747 5 3733 -3 3741 -3 3741 -23z"/>
<path d="M7377 5729 c-28 -16 -57 -88 -57 -140 0 -29 9 -63 24 -93 22 -44 23 -50 10 -82 -24 -58 -16 -102 27 -150 19 -20 19 -22 -3 -70 -47 -105 -19 -269 54 -314 35 -21 93 -26 118 -10 21 13 58 -24 66 -67 5 -28 10 -33 35 -33 26 0 29 4 29 30 0 42 -24 96 -48 109 -20 11 -20 11 -1 61 38 100 16 234 -46 289 -30 26 -44 31 -85 31 -58 0 -80 18 -80 64 0 49 14 56 110 56 97 0 123 12 146 66 20 47 17 141 -5 190 -30 66 -49 74 -171 74 -58 0 -113 -5 -123 -11z m223 -89 c22 -22 27 -78 10 -111 -9 -17 -22 -19 -100 -19 -85 0 -90 1 -106 25 -20 31 -13 94 13 112 10 8 47 13 90 13 60 0 77 -4 93 -20z m-63 -445 c57 -40 55 -204 -2 -241 -71 -46 -130 54 -104 175 15 73 58 99 106 66z"/>
<path d="M4535 5511 c-77 -47 -117 -132 -136 -291 -26 -229 19 -450 107 -519 91 -72 227 -41 281 63 23 45 43 124 43 174 l0 43 -37 -3 -38 -3 -7 -57 c-14 -108 -62 -163 -136 -155 -89 10 -130 91 -139 276 -9 200 24 343 88 376 15 8 47 15 69 15 69 0 106 -51 125 -172 6 -36 8 -38 42 -38 l36 0 -6 63 c-11 116 -58 206 -123 233 -48 20 -133 18 -169 -5z"/>
<path d="M4994 5511 c-127 -78 -124 -569 5 -635 16 -9 49 -16 72 -16 35 0 48 6 79 38 21 20 43 55 49 77 34 116 31 364 -5 454 -24 61 -75 101 -127 101 -23 0 -56 -8 -73 -19z m131 -116 c16 -32 21 -65 23 -166 6 -201 -21 -284 -91 -277 -23 2 -36 12 -52 38 -17 30 -20 56 -23 185 -5 208 15 269 87 263 31 -3 39 -9 56 -43z"/>
<path d="M5758 5514 c-35 -19 -65 -76 -74 -143 l-7 -51 40 0 c40 0 40 1 46 41 7 52 31 79 72 79 41 0 56 -18 62 -73 7 -63 -13 -95 -93 -143 -87 -53 -104 -83 -104 -182 0 -118 49 -182 138 -182 72 0 117 56 124 155 3 40 3 40 -34 43 -37 3 -38 2 -38 -30 0 -46 -24 -78 -60 -78 -37 0 -60 32 -60 85 0 47 15 65 90 107 87 50 112 94 111 200 0 85 -27 150 -70 172 -38 20 -107 20 -143 0z"/>
<path d="M6113 5515 c-44 -31 -53 -97 -53 -382 l0 -263 35 0 35 0 0 250 c0 287 6 320 59 320 39 0 66 -29 80 -85 6 -25 11 -137 11 -264 l0 -221 35 0 35 0 0 325 0 325 -25 0 c-20 0 -25 -6 -31 -37 -6 -34 -8 -35 -20 -17 -37 51 -56 64 -98 64 -23 0 -51 -7 -63 -15z"/>
<path d="M6648 5513 c-32 -38 -38 -84 -38 -319 0 -227 -1 -234 -20 -234 -17 0 -20 -7 -20 -41 0 -32 4 -42 19 -46 20 -5 31 -40 31 -102 0 -60 10 -81 36 -81 24 0 24 2 24 90 l0 90 30 0 c29 0 30 2 30 45 0 43 -1 45 -30 45 l-30 0 0 221 c0 229 5 259 41 259 18 0 20 5 17 43 -3 40 -4 42 -39 45 -24 2 -40 -3 -51 -15z"/>
<path d="M5312 5198 l3 -323 25 0 c21 0 26 5 28 33 4 36 17 42 27 12 16 -49 96 -76 147 -49 11 6 28 29 39 52 17 38 19 69 19 320 l0 277 -35 0 -35 0 0 -257 c0 -283 -4 -306 -53 -311 -34 -4 -53 10 -74 57 -13 29 -17 85 -21 274 l-4 237 -34 0 -34 0 2 -322z"/>
<path d="M6450 5075 l0 -445 35 0 35 0 0 445 0 445 -35 0 -35 0 0 -445z"/>
<path d="M6800 5195 l0 -325 35 0 35 0 0 325 0 325 -35 0 -35 0 0 -325z"/>
<path d="M6970 5195 l0 -325 24 0 c21 0 25 6 31 41 l7 42 16 -32 c29 -60 119 -82 160 -38 42 45 46 71 50 360 l4 277 -35 0 -36 0 -3 -258 c-3 -227 -5 -261 -21 -285 -34 -52 -95 -26 -116 50 -6 22 -11 136 -11 266 l0 227 -35 0 -35 0 0 -325z"/>
<path d="M6800 4690 l0 -60 35 0 35 0 0 60 0 60 -35 0 -35 0 0 -60z"/>
<path d="M2372 2668 l3 -123 113 0 c112 0 114 0 137 28 43 49 45 139 4 191 -20 25 -23 26 -140 26 l-120 0 3 -122z"/>
<path d="M6042 3158 l3 -113 119 -3 c92 -2 124 1 141 12 46 31 58 135 21 191 -16 25 -19 25 -152 25 l-135 0 3 -112z"/>
<path d="M6042 2648 l3 -113 111 -3 c94 -2 114 0 133 15 44 35 47 148 5 194 -15 17 -31 19 -136 19 l-119 0 3 -112z"/>
<path d="M8244 3261 c-2 -2 -4 -161 -4 -353 l0 -348 70 0 c83 0 126 16 163 59 48 58 59 122 55 319 -3 166 -5 180 -28 226 -38 74 -66 90 -167 96 -46 3 -87 3 -89 1z"/>
<path d="M9320 2910 l0 -352 83 3 c102 5 137 26 176 108 25 54 26 63 26 236 0 208 -8 248 -65 309 l-39 41 -90 3 -91 4 0 -352z"/>
</g>


</svg>